<svg width="30" height="30" viewBox="0 0 30 30" fill="none" xmlns="http://www.w3.org/2000/svg">
<path d="M0 0V30H30V0H0ZM9.99938 23.7506H6.24937V9.99938H9.99938V23.7506ZM8.12438 8.415C7.68756 8.41834 7.2596 8.29187 6.89478 8.05162C6.52996 7.81137 6.24471 7.46818 6.07523 7.06558C5.90575 6.66297 5.85967 6.2191 5.94283 5.79026C6.026 5.36143 6.23466 4.96696 6.54235 4.65689C6.85004 4.34683 7.2429 4.13514 7.67108 4.04868C8.09926 3.96223 8.54348 4.0049 8.94737 4.17128C9.35127 4.33767 9.69664 4.62026 9.93969 4.98323C10.1827 5.3462 10.3125 5.77318 10.3125 6.21C10.3145 6.79249 10.0851 7.35194 9.67484 7.76541C9.26454 8.17887 8.70686 8.41252 8.12438 8.415ZM24.9994 23.7506H21.2494V16.7456C21.2494 12.5362 16.2488 12.855 16.2488 16.7456V23.7506H12.4987V9.99938H16.2488V12.2063C16.8226 11.2898 17.6916 10.5963 18.7126 10.2401C19.7335 9.88388 20.8454 9.88629 21.8648 10.2469C22.8841 10.6075 23.7502 11.3048 24.32 12.2238C24.8899 13.1427 25.1295 14.2284 24.9994 15.3019V23.7506Z" fill="black"/>
</svg>
